<svg xmlns="http://www.w3.org/2000/svg" xmlns:xlink="http://www.w3.org/1999/xlink" width="7.35mm" height="8.18mm" viewBox="0 0 20.85 23.19"><defs><style>.cls-1{fill:url(#linear-gradient);}</style><linearGradient id="linear-gradient" x1="22.11" y1="21.93" x2="1.6" y2="1.42" gradientUnits="userSpaceOnUse"><stop offset="0" stop-color="#fdb913"/><stop offset="0.17" stop-color="#f99f1c"/><stop offset="0.47" stop-color="#f99f1c"/><stop offset="0.72" stop-color="#f47920"/><stop offset="1" stop-color="#f04e23"/></linearGradient></defs><title>icon-dialog-orange</title><g id="Capa_2" data-name="Capa 2"><g id="Isolation_Mode" data-name="Isolation Mode"><path class="cls-1" d="M20.84,15.18V5.39a5.19,5.19,0,0,0-5-5.39H5A5.19,5.19,0,0,0,0,5.39V15.1a5.2,5.2,0,0,0,5,5.39H15.8l5.05,2.7ZM6.27,11.44a1.25,1.25,0,1,1,1.24-1.25A1.25,1.25,0,0,1,6.27,11.44Zm4.08,0a1.25,1.25,0,1,1,1.25-1.25A1.24,1.24,0,0,1,10.35,11.44Zm4.09,0a1.25,1.25,0,1,1,1.24-1.25A1.25,1.25,0,0,1,14.44,11.44Z"/></g></g></svg>