<svg xmlns="http://www.w3.org/2000/svg" width="25.4mm" height="25.4mm" viewBox="0 0 72 72"><defs><style>.cls-1{fill:#48b392;fill-rule:evenodd;}</style></defs><title>icon-whatsapp</title><g id="Capa_2" data-name="Capa 2"><g id="Layer_1" data-name="Layer 1"><path class="cls-1" d="M72,35.07A35.39,35.39,0,0,1,19.57,65.78L0,72,6.38,53.18A34.67,34.67,0,0,1,1.31,35.07a35.35,35.35,0,0,1,70.69,0ZM36.66,5.59A29.63,29.63,0,0,0,6.94,35.07,29.17,29.17,0,0,0,12.6,52.36l-3.71,11,11.42-3.63A29.74,29.74,0,0,0,66.37,35.07,29.63,29.63,0,0,0,36.66,5.59ZM54.5,43.15c-.21-.36-.79-.57-1.66-1s-5.13-2.51-5.92-2.8-1.37-.43-2,.43-2.24,2.8-2.74,3.37-1,.65-1.88.22a23.67,23.67,0,0,1-7-4.27,26.27,26.27,0,0,1-4.82-6c-.5-.86,0-1.33.38-1.75s.87-1,1.3-1.51a5.59,5.59,0,0,0,.87-1.44A1.58,1.58,0,0,0,31,27c-.22-.43-1.95-4.66-2.68-6.38s-1.44-1.44-1.95-1.44-1.08-.07-1.66-.07a3.22,3.22,0,0,0-2.31,1.08,9.62,9.62,0,0,0-3,7.17c0,4.23,3.11,8.32,3.54,8.89s6,9.53,14.8,13,8.81,2.29,10.4,2.14,5.12-2.07,5.85-4.08a7.11,7.11,0,0,0,.5-4.09Z"/></g></g></svg>