<svg xmlns="http://www.w3.org/2000/svg" xmlns:xlink="http://www.w3.org/1999/xlink" width="90.85mm" height="66.35mm" viewBox="0 0 257.52 188.08"><defs><style>.cls-1{fill:url(#linear-gradient);}.cls-2{fill:url(#linear-gradient-2);}.cls-3{fill:#fff;}</style><linearGradient id="linear-gradient" x1="205.79" y1="175.29" x2="105.51" y2="1.59" gradientUnits="userSpaceOnUse"><stop offset="0" stop-color="#b0d235"/><stop offset="1" stop-color="#009ccf"/></linearGradient><linearGradient id="linear-gradient-2" x1="-185.25" y1="183.82" x2="-115.98" y2="114.55" gradientTransform="matrix(-1, 0, 0, 1, -110.57, 0)" xlink:href="#linear-gradient"/></defs><title>logo-footer</title><g id="Capa_2" data-name="Capa 2"><g id="Layer_1" data-name="Layer 1"><path class="cls-1" d="M214.48,0H119.81a43,43,0,0,0-43,43s0,78,0,78.15l0,64,43.78-21.58h93.94a43,43,0,0,0,43-43V43A43,43,0,0,0,214.48,0Z"/><path class="cls-2" d="M16.76,109.74H53.64c9.26,0,16.77,8.15,16.77,18.2,0,0,0,33,0,33.06l0,27.08L53.36,179H16.76C7.51,179,0,170.8,0,160.75V127.94C0,117.89,7.51,109.74,16.76,109.74Z"/><path class="cls-3" d="M113.41,71.34l7-17.5c1.21-3,3.14-4.56,5.2-4.56,3.16,0,4.35,1.44,4.53,5.24l1.35,30.4h-6.9l-.86-25.28h0l-6.33,17.3c-.8,2.2-2.08,3.29-3.93,3.29s-3.13-1.08-4-3.29L103,59.7h0l-.84,25.22H95.44l1.41-30.43c.17-3.61,1.42-5.21,4.52-5.21,2,0,3.88,1.33,5.11,4.45Z"/><path class="cls-3" d="M160.84,73c0,9.7-5.23,12.24-13.23,12.24S134.36,82.74,134.36,73V49.64h7.07V73.43c0,4.19,1.6,5.85,6.18,5.85s6.15-1.66,6.15-5.85V49.64h7.08Z"/><path class="cls-3" d="M171.77,84.92h-7.16V50.25a67.28,67.28,0,0,1,11.49-1c7.79,0,14.17,1.55,14.17,11.08,0,6.24-2.63,9.18-6.78,10.44l8.07,14.12h-8.25l-7.23-13.31c-1.44,0-3.07-.07-4.31-.15Zm0-19.15a37.14,37.14,0,0,0,4.35.18c4.44,0,7.06-1.14,7.06-5.62,0-3.9-1.76-5.46-6.9-5.46a34.5,34.5,0,0,0-4.51.3Z"/><path class="cls-3" d="M191.91,84.92,202.4,54.2c1.18-3.45,3.08-4.92,5.79-4.92s4.62,1.56,5.76,4.92l10.31,30.72h-7.6L214,76.18h-12l-2.63,8.74Zm20.37-14.23-4.39-14.26-4.31,14.26Z"/><path class="cls-3" d="M246.31,84.77c-2.49.11-6.81.24-9,.24C230.91,85,225,84.66,225,76.4V49.64h7.18V74.4c0,3.92.7,4.8,4.93,4.8h9.16Z"/><path class="cls-3" d="M39.18,144.18A4.21,4.21,0,0,1,35,148.39h0a4.21,4.21,0,0,1-4.21-4.21h0A4.21,4.21,0,0,1,35,140h0a4.21,4.21,0,0,1,4.22,4.21Z"/><path class="cls-3" d="M25.37,144.18a4.2,4.2,0,0,1-4.21,4.21h0A4.21,4.21,0,0,1,17,144.18h0A4.21,4.21,0,0,1,21.16,140h0a4.2,4.2,0,0,1,4.21,4.21Z"/><path class="cls-3" d="M53,144.18a4.21,4.21,0,0,1-4.21,4.21h0a4.2,4.2,0,0,1-4.21-4.21h0A4.2,4.2,0,0,1,48.77,140h0A4.21,4.21,0,0,1,53,144.18Z"/><path class="cls-3" d="M95.75,93.88a33.16,33.16,0,0,1,5.18-.4c6.18,0,7.26,2.84,7.26,8.49s-1.08,8.5-7.26,8.5a31.84,31.84,0,0,1-5.18-.42Zm2.34,1.68v12.82a17.41,17.41,0,0,0,2.36.18c5.37,0,5.41-2.85,5.41-6.59s0-6.59-5.41-6.59A19.18,19.18,0,0,0,98.09,95.56Z"/><path class="cls-3" d="M110.46,93.65h2.33V110.3h-2.33Z"/><path class="cls-3" d="M122,101.39h5.25v6.19c0,2.71-2.32,2.89-5.48,2.89-5.41,0-6.75-2.58-6.75-8.5s1.34-8.49,6.75-8.49a27.51,27.51,0,0,1,5,.41l-.2,1.82a31.41,31.41,0,0,0-4.14-.28c-4.81,0-5.06,2.5-5.06,6.54s.26,6.55,5.06,6.55c2.37,0,2.5-.72,2.5-1.78v-3.53h-3Z"/><path class="cls-3" d="M129.49,93.65h2.34V110.3h-2.34Z"/><path class="cls-3" d="M144.43,95.53H140V110.3h-2.34V95.53h-4.41V93.65h11.15Z"/><path class="cls-3" d="M143,110.3l5.44-15.23a2,2,0,0,1,3.87,0l5.36,15.23H155.2l-1.56-4.61H147l-1.56,4.61Zm10-6.42-2.73-8-2.72,8Z"/><path class="cls-3" d="M168.43,110.26c-1.29,0-2.83.08-4,.08-2.88,0-5.57-.15-5.57-3.79V93.65h2.33v11.9c0,2.38.45,2.89,3.17,2.89h4Z"/><path class="cls-3" d="M174.18,102c0-6,1.44-8.49,6.52-8.49s6.5,2.47,6.5,8.49-1.43,8.5-6.5,8.5S174.18,108,174.18,102Zm10.66,0c0-3.87-.14-6.57-4.14-6.57s-4.15,2.7-4.15,6.57.13,6.58,4.15,6.58S184.84,105.84,184.84,102Z"/><path class="cls-3" d="M200.15,107.33V93.65h2.11v15.14c0,1.17-.55,1.68-1.43,1.68s-1.45-.44-2.08-1.52l-7.18-12.36V110.3h-2.1V95.16c0-1.18.56-1.68,1.43-1.68s1.45.44,2.06,1.5Z"/><path class="cls-3" d="M214.4,110.26c-1.29,0-2.82.08-4,.08-2.87,0-5.57-.15-5.57-3.79V93.65h2.34v11.9c0,2.38.45,2.89,3.17,2.89h4Z"/><path class="cls-3" d="M215.34,93.65h2.34V110.3h-2.34Z"/><path class="cls-3" d="M231.07,107.33V93.65h2.11v15.14c0,1.17-.56,1.68-1.43,1.68s-1.45-.44-2.08-1.52l-7.18-12.36V110.3h-2.11V95.16c0-1.18.57-1.68,1.44-1.68s1.44.44,2.06,1.5Z"/><path class="cls-3" d="M245.57,95.51h-4.31c-2.72,0-3.17.51-3.17,2.9v2.48h7.15v1.86h-7.15v2.8c0,2.39.45,2.89,3.17,2.89h4.31v1.8c-1.28.06-3,.1-4.23.1-2.89,0-5.58-.15-5.58-3.79V97.41c0-3.65,2.69-3.8,5.58-3.8,1.1,0,2.93,0,4.23.1Z"/></g></g></svg>