<svg xmlns="http://www.w3.org/2000/svg" xmlns:xlink="http://www.w3.org/1999/xlink" width="37.86mm" height="16.18mm" viewBox="0 0 107.31 45.86"><defs><style>.cls-1{fill:#231f20;}.cls-2{fill:url(#linear-gradient);}.cls-3{fill:url(#linear-gradient-6);}.cls-4{fill:url(#linear-gradient-19);}</style><linearGradient id="linear-gradient" x1="79.02" y1="0.48" x2="51.75" y2="47.7" gradientUnits="userSpaceOnUse"><stop offset="0" stop-color="#009ccf"/><stop offset="0.65" stop-color="#75c069"/><stop offset="1" stop-color="#b0d235"/></linearGradient><linearGradient id="linear-gradient-6" x1="77.91" y1="19.94" x2="53.4" y2="62.4" xlink:href="#linear-gradient"/><linearGradient id="linear-gradient-19" x1="22.11" y1="21.93" x2="1.6" y2="1.42" gradientUnits="userSpaceOnUse"><stop offset="0" stop-color="#b0d235"/><stop offset="1" stop-color="#009ccf"/></linearGradient></defs><title>logo</title><g id="Capa_2" data-name="Capa 2"><g id="Layer_1" data-name="Layer 1"><path class="cls-1" d="M34.1,24.3,38,14.64c.67-1.66,1.73-2.51,2.87-2.51,1.74,0,2.4.79,2.5,2.89l.75,16.77H40.27l-.48-13.95h0l-3.49,9.55c-.45,1.21-1.15,1.81-2.17,1.81s-1.73-.6-2.18-1.81l-3.6-9.52h0l-.47,13.92H24.19L25,15c.09-2,.79-2.87,2.5-2.87,1.13,0,2.14.73,2.81,2.45Z"/><path class="cls-1" d="M60.23,25.23c0,5.35-2.88,6.76-7.3,6.76s-7.31-1.41-7.31-6.76V12.33h3.9V25.45c0,2.31.89,3.22,3.41,3.22s3.4-.91,3.4-3.22V12.33h3.9Z"/><path class="cls-1" d="M66.23,31.79H62.29V12.66a37,37,0,0,1,6.33-.53c4.3,0,7.82.85,7.82,6.11,0,3.44-1.45,5.06-3.73,5.76l4.44,7.79H72.61l-4-7.34c-.79,0-1.69-.05-2.38-.09Zm0-10.57a21.58,21.58,0,0,0,2.41.1c2.45,0,3.89-.62,3.89-3.09,0-2.16-1-3-3.81-3a19.42,19.42,0,0,0-2.49.17Z"/><path class="cls-1" d="M77.33,31.79l5.78-16.95c.65-1.9,1.7-2.71,3.2-2.71s2.55.86,3.17,2.71l5.69,17H91L89.49,27H82.85L81.4,31.79Zm11.23-7.85-2.42-7.87-2.38,7.87Z"/><path class="cls-1" d="M107.31,31.7c-1.37.06-3.76.14-5,.14-3.52,0-6.76-.2-6.76-4.76V12.33h4V26c0,2.16.39,2.65,2.72,2.65h5Z"/><path class="cls-2" d="M34.1,24.3,38,14.64c.67-1.66,1.73-2.51,2.87-2.51,1.74,0,2.4.79,2.5,2.89l.75,16.77H40.27l-.48-13.95h0l-3.49,9.55c-.45,1.21-1.15,1.81-2.17,1.81s-1.73-.6-2.18-1.81l-3.6-9.52h0l-.47,13.92H24.19L25,15c.09-2,.79-2.87,2.5-2.87,1.13,0,2.14.73,2.81,2.45Z"/><path class="cls-2" d="M60.23,25.23c0,5.35-2.88,6.76-7.3,6.76s-7.31-1.41-7.31-6.76V12.33h3.9V25.45c0,2.31.89,3.22,3.41,3.22s3.4-.91,3.4-3.22V12.33h3.9Z"/><path class="cls-2" d="M66.23,31.79H62.29V12.66a37,37,0,0,1,6.33-.53c4.3,0,7.82.85,7.82,6.11,0,3.44-1.45,5.06-3.73,5.76l4.44,7.79H72.61l-4-7.34c-.79,0-1.69-.05-2.38-.09Zm0-10.57a21.58,21.58,0,0,0,2.41.1c2.45,0,3.89-.62,3.89-3.09,0-2.16-1-3-3.81-3a19.42,19.42,0,0,0-2.49.17Z"/><path class="cls-2" d="M77.33,31.79l5.78-16.95c.65-1.9,1.7-2.71,3.2-2.71s2.55.86,3.17,2.71l5.69,17H91L89.49,27H82.85L81.4,31.79Zm11.23-7.85-2.42-7.87-2.38,7.87Z"/><path class="cls-2" d="M107.31,31.7c-1.37.06-3.76.14-5,.14-3.52,0-6.76-.2-6.76-4.76V12.33h4V26c0,2.16.39,2.65,2.72,2.65h5Z"/><path class="cls-1" d="M24.36,36.75a18.32,18.32,0,0,1,2.84-.22c3.39,0,4,1.56,4,4.67s-.6,4.66-4,4.66a17.09,17.09,0,0,1-2.84-.23Zm1.27.93v7a10.62,10.62,0,0,0,1.3.09c2.95,0,3-1.56,3-3.61s0-3.62-3-3.62A10.56,10.56,0,0,0,25.63,37.68Z"/><path class="cls-1" d="M32.46,36.63h1.28v9.14H32.46Z"/><path class="cls-1" d="M38.81,40.88H41.7v3.39c0,1.49-1.28,1.59-3,1.59-3,0-3.71-1.42-3.71-4.66s.74-4.67,3.71-4.67a15,15,0,0,1,2.75.23l-.11,1a16.37,16.37,0,0,0-2.27-.16c-2.64,0-2.77,1.38-2.77,3.6s.13,3.59,2.77,3.59c1.3,0,1.38-.4,1.38-1V41.88H38.81Z"/><path class="cls-1" d="M42.94,36.63h1.28v9.14H42.94Z"/><path class="cls-1" d="M51.15,37.66H48.73v8.11H47.45V37.66H45v-1h6.12Z"/><path class="cls-1" d="M50.39,45.77l3-8.36a1.09,1.09,0,0,1,2.14,0l2.93,8.36H57.09l-.87-2.54H52.56l-.85,2.54Zm5.5-3.53-1.5-4.41L52.9,42.24Z"/><path class="cls-1" d="M64.37,45.74c-.71,0-1.55,0-2.16,0-1.59,0-3.07-.08-3.07-2.08V36.63h1.29v6.53c0,1.3.24,1.59,1.74,1.59h2.2Z"/><path class="cls-1" d="M67.56,41.2c0-3.31.79-4.67,3.58-4.67s3.57,1.36,3.57,4.67-.79,4.66-3.57,4.66S67.56,44.51,67.56,41.2Zm5.85,0c0-2.13-.08-3.61-2.27-3.61s-2.28,1.48-2.28,3.61.07,3.61,2.28,3.61S73.41,43.32,73.41,41.2Z"/><path class="cls-1" d="M81.85,44.14V36.63H83v8.31c0,.64-.3.92-.78.92s-.8-.24-1.14-.83l-3.94-6.79v7.53H76V37.45c0-.64.31-.92.79-.92s.79.24,1.13.83Z"/><path class="cls-1" d="M89.7,45.74c-.71,0-1.55,0-2.17,0-1.58,0-3.06-.08-3.06-2.08V36.63h1.28v6.53c0,1.3.25,1.59,1.75,1.59h2.2Z"/><path class="cls-1" d="M90.23,36.63h1.29v9.14H90.23Z"/><path class="cls-1" d="M98.88,44.14V36.63H100v8.31c0,.64-.31.92-.79.92s-.8-.24-1.14-.83l-3.94-6.79v7.53H93V37.45c0-.64.31-.92.79-.92s.79.24,1.13.83Z"/><path class="cls-1" d="M106.87,37.65H104.5c-1.49,0-1.74.28-1.74,1.59V40.6h3.93v1h-3.93v1.54c0,1.31.25,1.59,1.74,1.59h2.37v1c-.7,0-1.66,0-2.33,0-1.58,0-3.06-.08-3.06-2.08v-5c0-2,1.48-2.09,3.06-2.09.61,0,1.62,0,2.33.06Z"/><path class="cls-3" d="M24.36,36.75a18.32,18.32,0,0,1,2.84-.22c3.39,0,4,1.56,4,4.67s-.6,4.66-4,4.66a17.09,17.09,0,0,1-2.84-.23Zm1.27.93v7a10.62,10.62,0,0,0,1.3.09c2.95,0,3-1.56,3-3.61s0-3.62-3-3.62A10.56,10.56,0,0,0,25.63,37.68Z"/><path class="cls-3" d="M32.46,36.63h1.28v9.14H32.46Z"/><path class="cls-3" d="M38.81,40.88H41.7v3.39c0,1.49-1.28,1.59-3,1.59-3,0-3.71-1.42-3.71-4.66s.74-4.67,3.71-4.67a15,15,0,0,1,2.75.23l-.11,1a16.37,16.37,0,0,0-2.27-.16c-2.64,0-2.77,1.38-2.77,3.6s.13,3.59,2.77,3.59c1.3,0,1.38-.4,1.38-1V41.88H38.81Z"/><path class="cls-3" d="M42.94,36.63h1.28v9.14H42.94Z"/><path class="cls-3" d="M51.15,37.66H48.73v8.11H47.45V37.66H45v-1h6.12Z"/><path class="cls-3" d="M50.39,45.77l3-8.36a1.09,1.09,0,0,1,2.14,0l2.93,8.36H57.09l-.87-2.54H52.56l-.85,2.54Zm5.5-3.53-1.5-4.41L52.9,42.24Z"/><path class="cls-3" d="M64.37,45.74c-.71,0-1.55,0-2.16,0-1.59,0-3.07-.08-3.07-2.08V36.63h1.29v6.53c0,1.3.24,1.59,1.74,1.59h2.2Z"/><path class="cls-3" d="M67.56,41.2c0-3.31.79-4.67,3.58-4.67s3.57,1.36,3.57,4.67-.79,4.66-3.57,4.66S67.56,44.51,67.56,41.2Zm5.85,0c0-2.13-.08-3.61-2.27-3.61s-2.28,1.48-2.28,3.61.07,3.61,2.28,3.61S73.41,43.32,73.41,41.2Z"/><path class="cls-3" d="M81.85,44.14V36.63H83v8.31c0,.64-.3.92-.78.92s-.8-.24-1.14-.83l-3.94-6.79v7.53H76V37.45c0-.64.31-.92.79-.92s.79.24,1.13.83Z"/><path class="cls-3" d="M89.7,45.74c-.71,0-1.55,0-2.17,0-1.58,0-3.06-.08-3.06-2.08V36.63h1.28v6.53c0,1.3.25,1.59,1.75,1.59h2.2Z"/><path class="cls-3" d="M90.23,36.63h1.29v9.14H90.23Z"/><path class="cls-3" d="M98.88,44.14V36.63H100v8.31c0,.64-.31.92-.79.92s-.8-.24-1.14-.83l-3.94-6.79v7.53H93V37.45c0-.64.31-.92.79-.92s.79.24,1.13.83Z"/><path class="cls-3" d="M106.87,37.65H104.5c-1.49,0-1.74.28-1.74,1.59V40.6h3.93v1h-3.93v1.54c0,1.31.25,1.59,1.74,1.59h2.37v1c-.7,0-1.66,0-2.33,0-1.58,0-3.06-.08-3.06-2.08v-5c0-2,1.48-2.09,3.06-2.09.61,0,1.62,0,2.33.06Z"/><path class="cls-4" d="M20.84,15.18V5.39a5.19,5.19,0,0,0-5-5.39H5A5.19,5.19,0,0,0,0,5.39V15.1a5.2,5.2,0,0,0,5,5.39H15.8l5.05,2.7ZM6.27,11.44a1.25,1.25,0,1,1,1.24-1.25A1.25,1.25,0,0,1,6.27,11.44Zm4.08,0a1.25,1.25,0,1,1,1.25-1.25A1.24,1.24,0,0,1,10.35,11.44Zm4.09,0a1.25,1.25,0,1,1,1.24-1.25A1.25,1.25,0,0,1,14.44,11.44Z"/></g></g></svg>